<svg id="svg" fill="#000000" stroke="#000000" width="200px" height="200px" version="1.1" viewBox="144 144 512 512" xmlns="http://www.w3.org/2000/svg">
    <g id="IconSvg_bgCarrier" stroke-width="0"></g>
    <g id="IconSvg_tracerCarrier" stroke-linecap="round" stroke-linejoin="round" stroke="#CCCCCC"></g>
     <g id="IconSvg_iconCarrier">
      <path xmlns="http://www.w3.org/2000/svg" d="m287.46 179.19c-32.004 0-59.965 21.57-59.965 50.758l0.003906 364.43c0 14.48 12.016 26.43 26.492 26.43h291.55c14.48 0 26.453-11.996 26.43-26.492l-0.53906-323.89c0.015625-5.6602-4.5742-10.262-10.234-10.281h-273.73c-23.031 0-39.402-14.516-39.402-30.195 0-15.68 16.371-30.242 39.402-30.242h273.2c5.6602-0.019531 10.246-4.6211 10.234-10.281-0.015625-5.6367-4.5977-10.215-10.234-10.234zm-9.207 39.938c-5.957 0.019531-10.77 4.8594-10.754 10.82 0.023437 5.9336 4.8203 10.75 10.754 10.773h283.5c5.9336-0.019531 10.734-4.8359 10.754-10.773 0.015625-5.957-4.7969-10.797-10.754-10.82zm-30.195 48.004c10.758 8.0586 24.379 13.57 39.402 13.57h4.3008l0.003907 319.59h-37.773c-3.4688 0-5.9297-2.4492-5.9297-5.9141zm65.293 13.57h108.02v198.24c0.015625 10.414 13.305 14.77 19.488 6.3906l23.68-32.566 23.68 32.566c6.1836 8.3789 19.473 4.0234 19.488-6.3906v-198.23h43.215l0.53906 313.68c0.003906 3.4453-2.4492 5.9141-5.9141 5.9141h-232.19zm129.61 0 43.152 0.003906v165.05l-12.844-17.684c-4.3125-5.918-13.148-5.918-17.461 0l-12.848 17.684z"></path>

      </g>
      </svg>